<svg xmlns="http://www.w3.org/2000/svg" width="160" height="32" viewBox="0 0 160 32" fill="none"><path d="M36.749 18.84c.046-.234.163-.326.348-.326h3.005c.21 0 .327.116.303.326-.163 1.118.582 1.584 2.003 1.584 1.398 0 2.073-.397 2.073-1.211 0-.583-.326-.955-1.257-1.421l-2.656-1.304c-1.886-.933-2.703-2.05-2.703-3.982 0-2.866 2.143-4.66 5.754-4.66 4.029 0 5.94 1.608 5.38 4.706-.046.256-.116.349-.326.349h-3.05q-.315 0-.28-.349c.116-1.048-.583-1.538-1.887-1.538-1.119 0-1.771.442-1.771 1.165 0 .559.302.909 1.21 1.375l2.842 1.444c1.818.932 2.586 2.026 2.586 3.866 0 3.144-2.142 4.798-6.242 4.798-4.121-.001-6.007-1.537-5.332-4.822m13.091 4.216 2.305-14.605a.36.36 0 0 1 .373-.326h4.845c3.704 0 5.45 1.14 5.45 3.424 0 1.91-1.119 3.285-2.981 3.75v.07c1.677.327 2.54 1.399 2.54 3.052 0 3.424-2.4 4.961-7.083 4.961h-5.193c-.186 0-.28-.116-.256-.326m6.08-2.771c1.817 0 2.656-.49 2.656-1.864 0-.98-.629-1.375-2.237-1.375h-1.817l-.512 3.239zm.721-6.011c1.421 0 2.26-.559 2.26-1.77 0-.955-.49-1.282-1.887-1.282h-1.56l-.488 3.052zm9.668 8.782 1.84-11.622h-3.68c-.21 0-.349-.093-.303-.327l.42-2.656a.37.37 0 0 1 .348-.326h11.181c.21 0 .349.117.303.326l-.42 2.656a.37.37 0 0 1-.348.327h-3.727l-1.886 11.622c-.023.186-.117.326-.327.326h-3.097c-.211 0-.328-.14-.304-.326m10.04-3.936c.046-.187.163-.256.326-.256h1.538c.163 0 .28.117.232.28-.396 1.98.979 2.608 2.936 2.608 2.236 0 3.4-.838 3.4-2.4 0-1.072-.512-1.63-1.98-2.33l-2.748-1.304c-1.655-.768-2.447-1.862-2.447-3.587 0-2.749 2.096-4.262 5.474-4.262 3.144 0 5.31 1.374 4.728 4.425-.047.186-.117.256-.28.256h-1.655c-.139 0-.233-.092-.21-.28.233-1.84-.978-2.516-2.794-2.516-1.91 0-3.052.838-3.052 2.19 0 .909.512 1.56 1.724 2.142l2.632 1.212c1.979.908 2.841 2.096 2.841 3.913 0 2.749-2.12 4.448-5.8 4.448-3.445.002-5.565-1.349-4.865-4.539m13.184-.28.466-2.749c.49-2.958 2.19-4.379 5.288-4.379 3.05 0 4.659 1.608 4.193 4.752l-.42 2.702c-.465 3.122-2.19 4.496-5.358 4.496s-4.683-1.7-4.17-4.822m7.43.117.35-2.26c.327-2.12-.442-3.075-2.212-3.075-1.864 0-2.703.839-3.005 2.773l-.397 2.306c-.326 2.003.327 3.051 2.213 3.051 1.816 0 2.725-.816 3.051-2.795m4.451 4.192 2.445-15.443c.024-.14.139-.234.256-.234h1.676c.164 0 .234.093.21.234l-2.445 15.443c-.024.139-.117.233-.256.233h-1.677c-.163 0-.233-.092-.209-.233m5.961-3.447 1.189-7.476a.28.28 0 0 1 .28-.234h1.655c.163 0 .256.094.233.234l-1.165 7.29c-.233 1.446.14 2.09 1.236 2.09 1.001 0 2.292-.77 3.601-2.36l1.127-7.02a.276.276 0 0 1 .28-.234h1.654c.139 0 .234.094.21.256l-1.304 8.269c-.14.862-.234 1.771-.256 2.632 0 .139-.093.233-.28.233h-1.421c-.163 0-.256-.07-.256-.233a8.7 8.7 0 0 1 .07-1.538c-1.467 1.304-2.795 2.05-4.401 2.05-2.055 0-2.847-1.421-2.452-3.959m13.138.21.955-6.056h-1.747c-.139 0-.21-.093-.187-.234l.209-1.398a.28.28 0 0 1 .28-.234h1.794l.429-2.795c.07-.163.163-.233.302-.233h1.574c.14 0 .234.07.186.233l-.419 2.795h3.331c.139 0 .256.095.21.234l-.21 1.398c-.046.14-.139.234-.28.234h-3.331l-.955 5.963c-.234 1.443.116 1.933 1.281 1.933a4.8 4.8 0 0 0 1.794-.349c.163-.07.28 0 .233.163l-.209 1.444c-.024.116-.095.187-.234.256-.606.256-1.352.395-2.283.395-2.397 0-3.118-1.327-2.723-3.749m7.595 3.237 1.723-10.925a.28.28 0 0 1 .28-.234h1.655c.163 0 .256.07.233.234l-1.747 10.925c-.024.139-.093.233-.256.233h-1.677c-.164 0-.235-.092-.211-.233M129.994 8.8l.022-.256c.093-.862.512-1.328 1.421-1.328.931 0 1.304.512 1.211 1.328l-.024.256c-.093.885-.512 1.35-1.421 1.35-.929.002-1.302-.512-1.209-1.35m3.96 10.04.465-2.749c.49-2.958 2.191-4.379 5.288-4.379 3.051 0 4.659 1.608 4.194 4.752l-.419 2.702c-.466 3.122-2.191 4.496-5.359 4.496s-4.681-1.7-4.169-4.822m7.43.117.35-2.26c.327-2.12-.443-3.075-2.212-3.075-1.864 0-2.703.839-3.005 2.773l-.397 2.306c-.326 2.003.326 3.051 2.213 3.051 1.816 0 2.725-.816 3.051-2.795m4.449 4.192s1.48-10.163 1.56-10.901c.021-.186.093-.256.303-.256h1.648c.163 0 .269.046.256.234-.021.307-.074.454-.146 1.017 1.157-.977 2.691-1.53 4.251-1.53 2.143 0 3.168 1.351 2.749 3.938l-1.187 7.501c-.024.14-.139.234-.256.234h-1.677c-.163 0-.232-.093-.209-.234l1.14-7.314c.232-1.49-.302-2.212-1.491-2.212-1.072 0-2.022.603-3.605 1.955l-1.193 7.573c-.024.139-.117.233-.256.233h-1.677c-.163-.005-.234-.097-.21-.238" fill="#fff"/><path d="M11.14 7.312c-2.354-.34-4.854-.088-6.287 1.5-1.119 1.238-1.592 5.622-.984 8.378s2.048 4.7 4.793 5.477c5.312 1.503 18.727-3.457 19.228-6.25.484-2.699-5.024-7.417-16.75-9.105" fill="#fc3"/><path d="M21.586 3.5c3.47 1.282 7.012 3.394 9.139 6.17-.544-1.616-1.413-3.179-2.675-4.499-1.428-1.491-2.968-2.56-4.821-2.526-.523.01-1.159.192-1.872.513h-.002c-.099.052-.205.11-.309.167.181.059.359.109.54.176" fill="#2ba8e0"/><path d="M31.011 15.95c.426-4.816-4.525-8.792-10.24-10.904-2.096-.774-4.241-.908-6.109.013-.13.066-.592.37-1.254.915 11.34 2.007 16.78 6.775 16.12 10.444-.198 1.105-1.064 2.161-2.646 3.225-3.424 2.304-10.952 4.931-16.167 4.931-1.027 0-1.963-.102-2.761-.328-1.67-.472-2.99-1.355-3.976-2.608-.938 3.575-.821 6.368 2.048 7.136 3.732 1 12.49-2.393 14.884-3.542 2.397-1.15 9.684-4.562 10.101-9.282" fill="#dd1863"/></svg>